<svg width="50" height="101" viewBox="0 0 50 101" fill="none" xmlns="http://www.w3.org/2000/svg">
<path d="M46.0719 21.7342C46.0719 9.73074 36.3461 0 24.3488 0C12.3515 0 2.62575 9.73074 2.62575 21.7342V55.0072C2.62575 67.0107 12.3515 76.7414 24.3488 76.7414C36.3461 76.7414 46.0719 67.0107 46.0719 55.0072V21.7342Z" fill="black"/>
<path d="M2.86837 97.1648C3.06247 97.2187 3.22961 97.305 3.38058 97.4129C3.53155 97.5262 3.65017 97.6665 3.73643 97.8391C3.8227 98.0117 3.87122 98.2167 3.87122 98.4486C3.87122 98.7453 3.79574 99.0043 3.65017 99.2309C3.4992 99.452 3.28892 99.6247 3.01934 99.7487C2.74436 99.8728 2.42625 99.9321 2.04884 99.9321H0V94.6456H1.96796C2.5233 94.6456 2.95464 94.7643 3.27275 95.007C3.58547 95.2498 3.74182 95.568 3.74182 95.9618C3.74182 96.1506 3.70947 96.3233 3.63938 96.4851C3.56929 96.6469 3.47224 96.7872 3.34284 96.9004C3.21344 97.0191 3.05708 97.1001 2.87376 97.1594L2.86837 97.1648ZM1.93022 95.3361H0.80336V96.895H1.93022C2.22676 96.895 2.464 96.8195 2.63653 96.6739C2.80906 96.5282 2.89533 96.334 2.89533 96.0913C2.89533 95.8485 2.80906 95.6705 2.63114 95.5356C2.45321 95.4008 2.22137 95.3361 1.92483 95.3361H1.93022ZM0.80336 99.2578H2.03266C2.33999 99.2578 2.58261 99.1823 2.76054 99.0313C2.93846 98.8802 3.03012 98.6752 3.03012 98.4163C3.03012 98.1574 2.93307 97.9416 2.74436 97.7959C2.55566 97.6503 2.29146 97.5748 1.95179 97.5748H0.80336V99.2578Z" fill="#231F20"/>
<path d="M6.42688 99.9376V94.6511H10.2226V95.3308H7.23024V96.852H9.28986V97.5317H7.23024V99.2525H10.2496V99.9322H6.42688V99.9376Z" fill="#231F20"/>
<path d="M14.8002 100.029C14.3311 100.029 13.9213 99.916 13.5709 99.6895C13.2204 99.4629 12.9508 99.1446 12.7567 98.7346C12.5626 98.3247 12.4656 97.8446 12.4656 97.2943C12.4656 96.7441 12.5626 96.2694 12.7621 95.8648C12.9562 95.4548 13.2366 95.1365 13.587 94.9046C13.9375 94.6726 14.3526 94.5593 14.8217 94.5593C15.183 94.5593 15.5119 94.6295 15.803 94.7697C16.0942 94.91 16.3314 95.115 16.5093 95.3847C16.6926 95.6544 16.7951 95.9781 16.8274 96.3557H15.9432C15.9001 96.0158 15.7814 95.7461 15.5819 95.5465C15.3825 95.3469 15.1237 95.2444 14.8055 95.2444C14.5252 95.2444 14.2664 95.3253 14.0453 95.4926C13.8189 95.6544 13.6409 95.8918 13.5115 96.1992C13.3821 96.5067 13.3121 96.8735 13.3121 97.2997C13.3121 97.7259 13.3768 98.1089 13.5115 98.4164C13.6463 98.7238 13.8297 98.9558 14.0669 99.1123C14.3041 99.2687 14.5629 99.3496 14.8595 99.3496C15.1183 99.3496 15.3447 99.3011 15.5388 99.2094C15.7383 99.1176 15.9001 98.9936 16.0295 98.8479V97.8014L15.1075 97.8338L15.1398 97.1433H16.8274V99.0799C16.6225 99.3766 16.3422 99.6085 15.9917 99.7758C15.6413 99.943 15.2423 100.024 14.8002 100.024V100.029Z" fill="#231F20"/>
<path d="M19.4046 94.6511H22.8499V95.3308H19.4046V94.6511ZM19.4046 99.2579H22.8499V99.9376H19.4046V99.2579ZM20.731 99.9376V94.6511H21.5344V99.9376H20.731Z" fill="#231F20"/>
<path d="M25.6913 99.9376V94.6511H29.5248V95.3308H26.4947V96.852H28.5921V97.5317H26.4947V99.9322H25.6913V99.9376Z" fill="#231F20"/>
<path d="M33.6009 99.9376V95.3308H31.8972V94.6511H36.1081V95.3308H34.4043V99.9376H33.6009Z" fill="#231F20"/>
<path d="M38.6044 99.9376V94.6511H42.4001V95.3308H39.4078V96.852H41.4674V97.5317H39.4078V99.2525H42.4271V99.9322H38.6044V99.9376Z" fill="#231F20"/>
<path d="M44.9342 99.9376V94.6511H46.5625C46.9453 94.6511 47.2904 94.7104 47.5977 94.8345C47.905 94.9585 48.1692 95.1366 48.3849 95.3631C48.6006 95.5951 48.7677 95.8702 48.8863 96.1939C49.005 96.5175 49.0589 96.879 49.0589 97.2782C49.0589 97.6773 48.9996 98.0496 48.8863 98.3732C48.7731 98.6969 48.606 98.9774 48.3849 99.2148C48.1638 99.4521 47.905 99.6302 47.5977 99.7542C47.2904 99.8783 46.9453 99.9376 46.5625 99.9376H44.9342ZM45.7376 99.2579H46.5625C46.9076 99.2579 47.1987 99.177 47.4468 99.0098C47.6948 98.8426 47.8835 98.616 48.0183 98.3193C48.1531 98.0226 48.2178 97.6774 48.2178 97.2836C48.2178 96.8898 48.1531 96.5391 48.0183 96.2478C47.8835 95.9565 47.6948 95.7353 47.4468 95.5735C47.1987 95.4117 46.9022 95.3362 46.5625 95.3362H45.7376V99.2579Z" fill="#231F20"/>
<path d="M14.8109 28.515L16.8598 27.8515L16.3584 22.8562L16.1265 22.7052L13.3121 23.6115L13.242 24.3505C12.4763 24.3505 12.2553 23.1529 12.7244 22.7753C13.4253 22.2143 15.2423 21.7342 16.1373 21.4537C16.2937 21.2811 15.3771 19.4092 15.954 19.0424L16.6926 21.2055C18.0136 20.8657 19.3453 20.5042 20.6933 20.2831C23.6479 19.7922 27.2172 19.4901 30.1503 20.1644C30.8404 20.3262 32.3177 20.7039 32.4255 21.5076C32.5442 22.3977 32.5334 23.5359 31.6869 24.0376L27.9612 26.039C30.4792 26.039 34.5175 25.5319 36.7712 26.8158C38.0437 27.544 38.0005 28.7254 37.8496 30.0848C37.6716 31.6384 35.1376 32.3613 33.8705 32.7389C29.4925 34.0551 24.6723 34.4435 20.1217 34.7294V39.5574H19.5179C19.4316 37.9337 18.666 36.4233 18.2994 34.8589C17.1078 34.9452 12.719 34.9452 11.9156 35.6303C11.673 35.8353 11.9372 36.4341 11.6029 36.5312C10.6324 36.8225 10.7348 34.5784 10.8319 34.0659C10.9882 33.2244 13.4846 32.8144 14.2017 32.6094L17.5337 32.194L17.221 30.1387L14.8109 30.7429V28.5096V28.515ZM31.455 22.1765C26.7966 20.5474 21.4427 21.4213 16.7466 22.5488L17.3396 27.6141C17.4529 27.7328 18.639 27.3552 18.8817 27.2851C22.2515 26.3141 27.2226 24.6148 30.2904 23.0127C30.4522 22.9318 31.5467 22.3114 31.4497 22.1819L31.455 22.1765ZM36.5232 29.0599C35.4557 28.7146 34.3342 28.4125 33.2073 28.337C30.0532 28.1212 26.2359 28.515 23.0926 28.9574C21.3295 29.2055 19.5556 29.5507 17.8249 29.9661L18.4449 32.1832C22.3539 32.07 26.2952 31.7787 30.1503 31.0774C31.7624 30.7807 35.0405 30.1657 36.3669 29.335C36.4909 29.2594 36.5771 29.3404 36.5178 29.0652L36.5232 29.0599Z" fill="white"/>
<path d="M23.5616 49.0678C23.6317 48.8359 26.3923 48.0321 26.8452 47.8864C29.8753 46.9424 32.9539 46.1117 36.011 45.2593L36.8899 44.4232C37.5962 45.7772 36.5124 46.8183 35.9841 47.9782L33.4554 48.7657C33.7789 49.7313 33.946 51.614 33.3313 52.4501C31.5521 54.8722 23.47 58.3031 20.483 58.5459C18.639 58.6969 16.5848 58.3786 16.1103 56.2856C14.6546 49.8446 21.7446 43.641 27.0608 41.4616C28.4249 40.9006 31.4604 39.8541 32.7221 40.8575C33.4176 41.4131 33.0294 43.1987 32.8515 42.9667C32.9431 41.4185 30.3012 42.0496 29.3523 42.3032C25.2169 43.4036 20.1972 47.3038 17.9651 50.9451C17.345 51.9539 16.1804 54.0091 16.7843 55.1258C18.1484 57.6396 23.222 55.6598 25.2492 54.8561C27.7024 53.8851 30.2204 52.5688 32.2476 50.8696C30.0155 50.438 27.476 50.8156 25.2277 51.2094C24.9796 51.2526 23.5616 51.765 23.5616 51.3551V49.0624V49.0678Z" fill="white"/>
</svg>
